<svg aria-hidden="true" style="position: absolute; width: 0; height: 0; overflow: hidden;" version="1.1" xmlns="http://www.w3.org/2000/svg" xmlns:xlink="http://www.w3.org/1999/xlink">
<defs>
<symbol id="icon-arrow-left" viewBox="0 0 32 32">
<path stroke-linejoin="round" stroke-linecap="round" stroke-miterlimit="4" stroke-width="2" d="M26.667 16h-21.333"></path>
<path stroke-linejoin="round" stroke-linecap="round" stroke-miterlimit="4" stroke-width="2" d="M13.333 24l-8-8 8-8"></path>
</symbol>
<symbol id="icon-arrow-narrow-right-1" viewBox="0 0 32 32">
<path stroke-linejoin="round" stroke-linecap="round" stroke-miterlimit="4" stroke-width="2" d="M5.333 16h21.333"></path>
<path stroke-linejoin="round" stroke-linecap="round" stroke-miterlimit="4" stroke-width="2" d="M18.667 8l8 8-8 8"></path>
</symbol>
<symbol id="icon-pointer-to-top" viewBox="0 0 32 32">
<path stroke-linejoin="miter" stroke-linecap="butt" stroke-miterlimit="4" stroke-width="3.2" d="M24 20l-8-8-8 8"></path>
</symbol>
<symbol id="icon-pointer-down" viewBox="0 0 32 32">
<path stroke-linejoin="miter" stroke-linecap="butt" stroke-miterlimit="4" stroke-width="3.2" d="M24 12l-8 8-8-8"></path>
</symbol>
<symbol id="icon-user" viewBox="0 0 32 32">
<path stroke-linejoin="round" stroke-linecap="round" stroke-miterlimit="4" stroke-width="2.6667" d="M26.667 28c0-1.861 0-2.791-0.23-3.548-0.517-1.705-1.851-3.039-3.556-3.556-0.757-0.23-1.687-0.23-3.548-0.23h-6.667c-1.861 0-2.791 0-3.548 0.23-1.705 0.517-3.038 1.851-3.556 3.556-0.23 0.757-0.23 1.687-0.23 3.548"></path>
<path stroke-linejoin="round" stroke-linecap="round" stroke-miterlimit="4" stroke-width="2.6667" d="M16 16c3.314 0 6-2.686 6-6s-2.686-6-6-6c-3.314 0-6 2.686-6 6s2.686 6 6 6z"></path>
</symbol>
<symbol id="icon-message" viewBox="0 0 33 32">
<path stroke-linejoin="round" stroke-linecap="round" stroke-miterlimit="4" stroke-width="2.9091" d="M7.41 14.878c-0.090-0.583-0.137-1.18-0.137-1.787 0-6.427 5.244-11.636 11.713-11.636s11.713 5.21 11.713 11.636c0 1.452-0.267 2.841-0.756 4.123-0.102 0.266-0.152 0.399-0.175 0.503s-0.032 0.175-0.034 0.281c-0.002 0.106 0.012 0.224 0.041 0.458l0.585 4.757c0.063 0.515 0.095 0.772 0.009 0.96-0.075 0.164-0.208 0.294-0.374 0.366-0.189 0.081-0.446 0.044-0.959-0.032l-4.633-0.679c-0.242-0.035-0.363-0.053-0.473-0.052-0.109 0.001-0.184 0.009-0.291 0.031-0.108 0.023-0.246 0.074-0.521 0.177-1.285 0.481-2.677 0.745-4.131 0.745-0.608 0-1.206-0.046-1.789-0.135M9.646 30.545c4.313 0 7.809-3.582 7.809-8s-3.496-8-7.809-8c-4.313 0-7.809 3.582-7.809 8 0 0.888 0.141 1.742 0.402 2.541 0.11 0.337 0.165 0.506 0.183 0.621 0.019 0.12 0.022 0.188 0.015 0.31-0.007 0.116-0.036 0.248-0.094 0.511l-0.889 4.017 4.356-0.595c0.238-0.032 0.357-0.049 0.46-0.048 0.109 0.001 0.167 0.007 0.275 0.028 0.102 0.020 0.253 0.074 0.556 0.18 0.798 0.281 1.654 0.434 2.544 0.434z"></path>
</symbol>
<symbol id="icon-right" viewBox="0 0 31 32">
<path stroke-linejoin="round" stroke-linecap="round" stroke-miterlimit="4" stroke-width="2.7826" d="M1.391 29.217c2.783 0 6.411 0.475 8.313-1.426s1.902-4.985 0-6.887c-1.902-1.902-4.985-1.902-6.887 0s0 5.53-1.426 8.313z"></path>
<path stroke-linejoin="round" stroke-linecap="round" stroke-miterlimit="4" stroke-width="2.7826" d="M9.739 20.87c-0.684-0.684-1.026-1.026-1.219-1.384-0.463-0.859-0.444-1.897 0.053-2.737 0.207-0.35 0.562-0.679 1.271-1.336l13.729-12.712c1.209-1.12 3.087-1.084 4.253 0.082s1.202 3.043 0.082 4.253l-12.713 13.729c-0.657 0.709-0.985 1.064-1.336 1.271-0.84 0.496-1.879 0.516-2.737 0.053-0.358-0.193-0.7-0.535-1.384-1.219z"></path>
</symbol>
<symbol id="icon-time" viewBox="0 0 23 32">
<path stroke-linejoin="round" stroke-linecap="round" stroke-miterlimit="4" stroke-width="2.9091" d="M20.6 1.455h-17.927c-0.673 0-1.218 0.545-1.218 1.218 0 3.877 1.54 7.595 4.281 10.336l1.773 1.773c0.176 0.176 0.264 0.264 0.327 0.349 0.385 0.516 0.385 1.223 0 1.739-0.063 0.084-0.151 0.173-0.327 0.349l-1.773 1.773c-2.741 2.741-4.281 6.459-4.281 10.336 0 0.673 0.545 1.218 1.218 1.218h17.927c0.673 0 1.218-0.545 1.218-1.218 0-3.877-1.54-7.595-4.281-10.336l-1.773-1.773c-0.176-0.176-0.264-0.264-0.327-0.349-0.385-0.516-0.385-1.223 0-1.739 0.063-0.085 0.151-0.173 0.327-0.349l1.773-1.773c2.741-2.741 4.281-6.459 4.281-10.336 0-0.673-0.545-1.218-1.218-1.218z"></path>
</symbol>
<symbol id="icon-jefferson" viewBox="0 0 64 32">
<path d="M55.942 15.158l0.234-4.936-4.313 2.685-1.337-2.219 4.581-2.251-4.581-2.251 1.337-2.251 4.313 2.685-0.234-4.936h2.641l-0.234 4.936 4.313-2.685 1.337 2.251-4.58 2.251 4.58 2.251-1.337 2.219-4.313-2.685 0.234 4.936h-2.641z"></path>
<path d="M46.213 7.158v2.834h-10.844v-2.834h10.844zM38.325 25.263v-20.211c0-1.123 0.264-2.057 0.791-2.802 0.539-0.756 1.237-1.317 2.097-1.684 0.871-0.378 1.805-0.567 2.801-0.567 0.768 0 1.421 0.059 1.959 0.178s0.934 0.221 1.186 0.308l-0.894 2.85c-0.172-0.054-0.395-0.113-0.67-0.178-0.264-0.065-0.596-0.097-0.997-0.097-0.905 0-1.558 0.216-1.959 0.648-0.401 0.421-0.601 1.036-0.601 1.846v19.709h-3.712z"></path>
<path d="M36.108 7.158v2.834h-10.844v-2.834h10.844zM28.219 25.263v-20.211c0-1.123 0.264-2.057 0.791-2.802 0.538-0.756 1.237-1.317 2.097-1.684 0.871-0.378 1.805-0.567 2.801-0.567 0.768 0 1.421 0.059 1.959 0.178s0.934 0.221 1.186 0.308l-0.894 2.85c-0.172-0.054-0.395-0.113-0.67-0.178-0.264-0.065-0.596-0.097-0.997-0.097-0.905 0-1.558 0.216-1.959 0.648-0.401 0.421-0.601 1.036-0.601 1.846v19.709h-3.712z"></path>
<path d="M17.291 25.263c-1.82 0-3.395-0.38-4.726-1.139s-2.358-1.829-3.079-3.208c-0.71-1.39-1.065-3.010-1.065-4.86 0-1.839 0.35-3.459 1.048-4.86 0.71-1.401 1.703-2.492 2.979-3.272 1.287-0.791 2.796-1.187 4.527-1.187 1.054 0 2.075 0.166 3.062 0.497s1.875 0.855 2.663 1.572c0.788 0.716 1.409 1.647 1.864 2.791 0.466 1.144 0.699 2.524 0.699 4.138v1.251h-14.795v-2.615h12.931l-1.681 0.866c0-1.101-0.177-2.075-0.533-2.919s-0.888-1.502-1.598-1.973c-0.699-0.481-1.57-0.722-2.613-0.722s-1.936 0.241-2.679 0.722c-0.732 0.481-1.293 1.117-1.681 1.909s-0.582 1.657-0.582 2.598v1.78c0 1.23 0.222 2.272 0.666 3.128s1.060 1.508 1.847 1.957c0.799 0.449 1.725 0.674 2.779 0.674 0.688 0 1.309-0.096 1.864-0.289 0.566-0.193 1.054-0.481 1.465-0.866s0.721-0.861 0.932-1.428l3.428 0.625c-0.277 0.962-0.766 1.807-1.464 2.534s-1.581 1.294-2.646 1.7c-1.054 0.396-2.258 0.593-3.611 0.593z"></path>
<path d="M2.878 7.012h3.416v19.376c0.011 1.215-0.2 2.24-0.633 3.075s-1.065 1.464-1.898 1.887c-0.833 0.434-1.856 0.651-3.068 0.651h-0.696v-3.042h0.553c0.822 0 1.413-0.222 1.771-0.667s0.543-1.085 0.554-1.92v-19.36zM4.57 4.213c-0.601 0-1.112-0.206-1.534-0.618s-0.633-0.906-0.633-1.48c0-0.586 0.211-1.085 0.633-1.497s0.933-0.618 1.534-0.618c0.59 0 1.096 0.206 1.518 0.618 0.432 0.412 0.648 0.911 0.648 1.497 0 0.575-0.216 1.068-0.648 1.48-0.422 0.412-0.928 0.618-1.518 0.618z"></path>
</symbol>
<symbol id="icon-menu" viewBox="0 0 32 32">
<path d="M4.799 8.001c0-0.424 0.169-0.831 0.469-1.131s0.707-0.469 1.131-0.469h19.2c0.424 0 0.831 0.169 1.131 0.469s0.469 0.707 0.469 1.131-0.169 0.831-0.469 1.131c-0.3 0.3-0.707 0.469-1.131 0.469h-19.2c-0.424 0-0.831-0.169-1.131-0.469s-0.469-0.707-0.469-1.131z"></path>
<path d="M4.799 16.001c0-0.424 0.169-0.831 0.469-1.131s0.707-0.469 1.131-0.469h19.2c0.424 0 0.831 0.169 1.131 0.469s0.469 0.707 0.469 1.131c0 0.424-0.169 0.831-0.469 1.131s-0.707 0.469-1.131 0.469h-19.2c-0.424 0-0.831-0.169-1.131-0.469s-0.469-0.707-0.469-1.131z"></path>
<path d="M4.799 24.001c0-0.424 0.169-0.831 0.469-1.131s0.707-0.469 1.131-0.469h19.2c0.424 0 0.831 0.169 1.131 0.469s0.469 0.707 0.469 1.131c0 0.424-0.169 0.831-0.469 1.131s-0.707 0.469-1.131 0.469h-19.2c-0.424 0-0.831-0.169-1.131-0.469s-0.469-0.707-0.469-1.131z"></path>
</symbol>
</defs>
</svg>
